<svg class="diagram-root" style="background: #f5f6f6" xmlns="http://www.w3.org/2000/svg" xmlns:xlink="http://www.w3.org/1999/xlink"><style>.diagram-root { font-family: "Helvetica Neue", sans-serif; font-size: 12px; } .t { overflow: visible; } .t-bg { y: 40; fill: #fff;   } .th { fill: #005aa0;   } .tht { fill: #fff; font-size: 14px;  } .tf { fill: #323c46; overflow: visible; } .tf.pk { fill: #005aa0; font-weight: bold; } .tf.fk { font-weight: bold; } .ty { fill: #adb1b5; font-weight: normal; text-anchor: end; } .r { fill: transparent; stroke: #c3c3c3; stroke-width: 1; } .l { stroke: 1; } .i { fill: #c2c7ce; stroke: #c2c7ce; } .i.ix { fill: #afb3b6; stroke: #000; } .fa { fill: transparent; overflow: visible; } .fa .bg.hover { fill: #f7f7f7; } .c { cy: 12; r: 4; stroke: #d2d2dc; fill: #d2d2dc; } .hr { fill: transparent; stroke: #323c46; stroke-opacity: 0.035; stroke-width: 13; } .dc { stroke: #fa5a3c; fill: #fa5a3c; } .x { stroke: white; stroke-width: 1; } .hl .th { fill: #1b9bff; } .hl .tht {  } .fhl .bg { fill: #e7f4ff; } .fhls .bg {  } .r.hl { stroke: #1b9bff; } .dim { opacity: 0.25; }</style><g class="drawing-wrapper" transform="translate(488.75, 182) scale(1,1)"><g class="rs"><path d="M -159.75 97 m -1, 0 a 1,1 0 1,0 2,0 a 1,1 0 1,0 -2,0 M -159.75 97 m -0.5, 0 a 0.5,0.5 0 1,0 1,0 a 0.5,0.5 0 1,0 -1,0  M-159.75 97 L-159.75 97 -171.75 97 M -159.75 103 m -1, 0 a 1,1 0 1,0 2,0 a 1,1 0 1,0 -2,0 M -159.75 103 m -0.5, 0 a 0.5,0.5 0 1,0 1,0 a 0.5,0.5 0 1,0 -1,0  M-159.75 103 L-159.75 103 -166.75 97 -159.75 91 M -159.75 91 m -1, 0 a 1,1 0 1,0 2,0 a 1,1 0 1,0 -2,0 M -159.75 91 m -0.5, 0 a 0.5,0.5 0 1,0 1,0 a 0.5,0.5 0 1,0 -1,0  M-171.75 97 Q -199.21 97, -226.68 174.38 T -281.61 251.75 M -293.61 251.75 m -1, 0 a 1,1 0 1,0 2,0 a 1,1 0 1,0 -2,0 M -293.61 251.75 m -0.5, 0 a 0.5,0.5 0 1,0 1,0 a 0.5,0.5 0 1,0 -1,0  M-293.61 251.75 L-293.61 251.75 -281.61 251.75 M-287.61 257.75 L-287.61 257.75 -287.61 245.75" id="h133153459" class="r"></path><path d="M 155.83 -61 m -1, 0 a 1,1 0 1,0 2,0 a 1,1 0 1,0 -2,0 M 155.83 -61 m -0.5, 0 a 0.5,0.5 0 1,0 1,0 a 0.5,0.5 0 1,0 -1,0  M155.83 -61 L155.83 -61 167.83 -61 M161.83 -55 L161.83 -55 161.83 -67 M167.83 -61 C 217.83 -61, 297.28200000000004 72, 35.41 72 M 23.41 72 m -1, 0 a 1,1 0 1,0 2,0 a 1,1 0 1,0 -2,0 M 23.41 72 m -0.5, 0 a 0.5,0.5 0 1,0 1,0 a 0.5,0.5 0 1,0 -1,0  M23.41 72 L23.41 72 35.41 72 M29.41 78 L29.41 78 29.41 66" id="h1277105345" class="r"></path><path d="M -26 -36 m -1, 0 a 1,1 0 1,0 2,0 a 1,1 0 1,0 -2,0 M -26 -36 m -0.5, 0 a 0.5,0.5 0 1,0 1,0 a 0.5,0.5 0 1,0 -1,0  M-26 -36 L-26 -36 -38 -36 M -26 -30 m -1, 0 a 1,1 0 1,0 2,0 a 1,1 0 1,0 -2,0 M -26 -30 m -0.5, 0 a 0.5,0.5 0 1,0 1,0 a 0.5,0.5 0 1,0 -1,0  M-26 -30 L-26 -30 -33 -36 -26 -42 M -26 -42 m -1, 0 a 1,1 0 1,0 2,0 a 1,1 0 1,0 -2,0 M -26 -42 m -0.5, 0 a 0.5,0.5 0 1,0 1,0 a 0.5,0.5 0 1,0 -1,0  M-38 -36 Q -77.2 -36, -116.41 -65.5 T -194.83 -95 M -206.83 -95 m -1, 0 a 1,1 0 1,0 2,0 a 1,1 0 1,0 -2,0 M -206.83 -95 m -0.5, 0 a 0.5,0.5 0 1,0 1,0 a 0.5,0.5 0 1,0 -1,0  M-206.83 -95 L-206.83 -95 -194.83 -95 M-200.83 -89 L-200.83 -89 -200.83 -101" id="h1882043173" class="r"></path><path d="M -446 75 m -1, 0 a 1,1 0 1,0 2,0 a 1,1 0 1,0 -2,0 M -446 75 m -0.5, 0 a 0.5,0.5 0 1,0 1,0 a 0.5,0.5 0 1,0 -1,0  M-446 75 L-446 75 -458 75 M -446 81 m -1, 0 a 1,1 0 1,0 2,0 a 1,1 0 1,0 -2,0 M -446 81 m -0.5, 0 a 0.5,0.5 0 1,0 1,0 a 0.5,0.5 0 1,0 -1,0  M-446 81 L-446 81 -453 75 -446 69 M -446 69 m -1, 0 a 1,1 0 1,0 2,0 a 1,1 0 1,0 -2,0 M -446 69 m -0.5, 0 a 0.5,0.5 0 1,0 1,0 a 0.5,0.5 0 1,0 -1,0  M-458 75 C -508 75, -540.4 -95, -404 -95 M -392 -95 m -1, 0 a 1,1 0 1,0 2,0 a 1,1 0 1,0 -2,0 M -392 -95 m -0.5, 0 a 0.5,0.5 0 1,0 1,0 a 0.5,0.5 0 1,0 -1,0  M-392 -95 L-392 -95 -404 -95 M-398 -89 L-398 -89 -398 -101" id="h1248694035" class="r"></path><path d="M -264.17 100 m -1, 0 a 1,1 0 1,0 2,0 a 1,1 0 1,0 -2,0 M -264.17 100 m -0.5, 0 a 0.5,0.5 0 1,0 1,0 a 0.5,0.5 0 1,0 -1,0  M-264.17 100 L-264.17 100 -252.17000000000002 100 M-258.17 106 L-258.17 106 -258.17 94 M-252.17000000000002 100 Q -232.06 100, -211.96 86 T -171.75 72 M -159.75 72 m -1, 0 a 1,1 0 1,0 2,0 a 1,1 0 1,0 -2,0 M -159.75 72 m -0.5, 0 a 0.5,0.5 0 1,0 1,0 a 0.5,0.5 0 1,0 -1,0  M-159.75 72 L-159.75 72 -171.75 72 M-165.75 78 L-165.75 78 -165.75 66" id="h1130742295" class="r"></path><path d="M 193.7 200.75 m -1, 0 a 1,1 0 1,0 2,0 a 1,1 0 1,0 -2,0 M 193.7 200.75 m -0.5, 0 a 0.5,0.5 0 1,0 1,0 a 0.5,0.5 0 1,0 -1,0  M193.7 200.75 L193.7 200.75 205.7 200.75 M199.7 206.75 L199.7 206.75 199.7 194.75 M205.7 200.75 C 255.7 200.75, 357.874 72, 35.41 72 M 23.41 72 m -1, 0 a 1,1 0 1,0 2,0 a 1,1 0 1,0 -2,0 M 23.41 72 m -0.5, 0 a 0.5,0.5 0 1,0 1,0 a 0.5,0.5 0 1,0 -1,0  M23.41 72 L23.41 72 35.41 72 M29.41 78 L29.41 78 29.41 66" id="h221257298" class="r"></path></g><g class="hrs"></g><g class="ts"><svg width="185.17" height="100" x="-392" y="-152" id="h3708248841" class="t"><rect height="40" width="185.17" class="th"></rect><text x="13" y="25" class="tht">Departments</text><rect height="60" width="185.17" class="t-bg"></rect><text x="13" y="61" class="tf pk">dept_no<tspan x="172.17" class="ty">VARCHAR(4)</tspan></text><path d="M7,14A2,2 0 0,1 5,12A2,2 0 0,1 7,10A2,2 0 0,1 9,12A2,2 0 0,1 7,14M12.65,10C11.83,7.67 9.61,6 7, 6A6, 6 0 0, 0 1, 12A6, 6 0 0, 0 7, 18C9.61, 18 11.83, 16.33 12.65, 14H17V18H21V14H23V10H12.65Z" class="i pk" transform="translate(79.71882812499999, 48) scale(0.65)"></path><text x="13" y="86" class="tf">dept_name<tspan x="172.17" class="ty">VARCHAR(63)</tspan></text></svg><svg width="181.83" height="100" x="-446" y="18" id="h754932316" class="t"><rect height="40" width="181.83" class="th"></rect><text x="13" y="25" class="tht">Dept_Manager</text><rect height="60" width="181.83" class="t-bg"></rect><text x="13" y="61" class="tf pk">dept_no<tspan x="168.83" class="ty">VARCHAR(4)</tspan></text><path d="M7,14A2,2 0 0,1 5,12A2,2 0 0,1 7,10A2,2 0 0,1 9,12A2,2 0 0,1 7,14M12.65,10C11.83,7.67 9.61,6 7, 6A6, 6 0 0, 0 1, 12A6, 6 0 0, 0 7, 18C9.61, 18 11.83, 16.33 12.65, 14H17V18H21V14H23V10H12.65Z" class="i pk" transform="translate(76.37882812500001, 48) scale(0.65)"></path><text x="13" y="86" class="tf pk">emp_no<tspan x="168.83" class="ty">INT</tspan></text><path d="M7,14A2,2 0 0,1 5,12A2,2 0 0,1 7,10A2,2 0 0,1 9,12A2,2 0 0,1 7,14M12.65,10C11.83,7.67 9.61,6 7, 6A6, 6 0 0, 0 1, 12A6, 6 0 0, 0 7, 18C9.61, 18 11.83, 16.33 12.65, 14H17V18H21V14H23V10H12.65Z" class="i pk" transform="translate(129.499921875, 73) scale(0.65)"></path></svg><svg width="181.83" height="100" x="-26" y="-118" id="h3353995054" class="t"><rect height="40" width="181.83" class="th"></rect><text x="13" y="25" class="tht">Dept_Emp</text><rect height="60" width="181.83" class="t-bg"></rect><text x="13" y="61" class="tf pk">emp_no<tspan x="168.83" class="ty">INT</tspan></text><path d="M7,14A2,2 0 0,1 5,12A2,2 0 0,1 7,10A2,2 0 0,1 9,12A2,2 0 0,1 7,14M12.65,10C11.83,7.67 9.61,6 7, 6A6, 6 0 0, 0 1, 12A6, 6 0 0, 0 7, 18C9.61, 18 11.83, 16.33 12.65, 14H17V18H21V14H23V10H12.65Z" class="i pk" transform="translate(129.499921875, 48) scale(0.65)"></path><text x="13" y="86" class="tf pk">dept_no<tspan x="168.83" class="ty">VARCHAR(4)</tspan></text><path d="M7,14A2,2 0 0,1 5,12A2,2 0 0,1 7,10A2,2 0 0,1 9,12A2,2 0 0,1 7,14M12.65,10C11.83,7.67 9.61,6 7, 6A6, 6 0 0, 0 1, 12A6, 6 0 0, 0 7, 18C9.61, 18 11.83, 16.33 12.65, 14H17V18H21V14H23V10H12.65Z" class="i pk" transform="translate(76.37882812500001, 73) scale(0.65)"></path></svg><svg width="173.14" height="100" x="-466.75" y="194.75" id="h3517680912" class="t"><rect height="40" width="173.14" class="th"></rect><text x="13" y="25" class="tht">Titles</text><rect height="60" width="173.14" class="t-bg"></rect><text x="13" y="61" class="tf pk">title_id<tspan x="160.14" class="ty">VARCHAR(5)</tspan></text><path d="M7,14A2,2 0 0,1 5,12A2,2 0 0,1 7,10A2,2 0 0,1 9,12A2,2 0 0,1 7,14M12.65,10C11.83,7.67 9.61,6 7, 6A6, 6 0 0, 0 1, 12A6, 6 0 0, 0 7, 18C9.61, 18 11.83, 16.33 12.65, 14H17V18H21V14H23V10H12.65Z" class="i pk" transform="translate(67.68882812499999, 48) scale(0.65)"></path><text x="13" y="86" class="tf">title<tspan x="160.14" class="ty">VARCHAR(63)</tspan></text></svg><svg width="183.16" height="225" x="-159.75" y="15" id="h3299212598" class="t"><rect height="40" width="183.16" class="th"></rect><text x="13" y="25" class="tht">Employees</text><rect height="185" width="183.16" class="t-bg"></rect><text x="13" y="61" class="tf pk">emp_no<tspan x="170.16" class="ty">INT</tspan></text><path d="M7,14A2,2 0 0,1 5,12A2,2 0 0,1 7,10A2,2 0 0,1 9,12A2,2 0 0,1 7,14M12.65,10C11.83,7.67 9.61,6 7, 6A6, 6 0 0, 0 1, 12A6, 6 0 0, 0 7, 18C9.61, 18 11.83, 16.33 12.65, 14H17V18H21V14H23V10H12.65Z" class="i pk" transform="translate(130.829921875, 48) scale(0.65)"></path><text x="13" y="86" class="tf fk">emp_title_id<tspan x="170.16" class="ty">VARCHAR(5)</tspan></text><text x="13" y="111" class="tf">birth_date<tspan x="170.16" class="ty">DATE</tspan></text><text x="13" y="136" class="tf">first_name<tspan x="170.16" class="ty">VARCHAR(63)</tspan></text><text x="13" y="161" class="tf">last_name<tspan x="170.16" class="ty">VARCHAR(63)</tspan></text><text x="13" y="186" class="tf">sex<tspan x="170.16" class="ty">VARCHAR(4)</tspan></text><text x="13" y="211" class="tf">hire_date<tspan x="170.16" class="ty">DATE</tspan></text></svg><svg width="128.7" height="100" x="65" y="143.75" id="h3858243705" class="t"><rect height="40" width="128.7" class="th"></rect><text x="13" y="25" class="tht">Salaries</text><rect height="60" width="128.7" class="t-bg"></rect><text x="13" y="61" class="tf pk">emp_no<tspan x="115.69999999999999" class="ty">INT</tspan></text><path d="M7,14A2,2 0 0,1 5,12A2,2 0 0,1 7,10A2,2 0 0,1 9,12A2,2 0 0,1 7,14M12.65,10C11.83,7.67 9.61,6 7, 6A6, 6 0 0, 0 1, 12A6, 6 0 0, 0 7, 18C9.61, 18 11.83, 16.33 12.65, 14H17V18H21V14H23V10H12.65Z" class="i pk" transform="translate(76.36992187499999, 48) scale(0.65)"></path><text x="13" y="86" class="tf">salary<tspan x="115.69999999999999" class="ty">INT</tspan></text></svg></g></g><text class="qdbd-link" x="10" y="20">www.quickdatabasediagrams.com</text></svg>