<svg class="diagram-root" style="background: #f5f6f6" xmlns="http://www.w3.org/2000/svg" xmlns:xlink="http://www.w3.org/1999/xlink"><style>.diagram-root { font-family: "Helvetica Neue", sans-serif; font-size: 12px; } .t { overflow: visible; } .t-bg { y: 40; fill: #fff;   } .th { fill: #005aa0;   } .tht { fill: #fff; font-size: 14px;  } .tf { fill: #323c46; overflow: visible; } .tf.pk { fill: #005aa0; font-weight: bold; } .tf.fk { font-weight: bold; } .ty { fill: #adb1b5; font-weight: normal; text-anchor: end; } .r { fill: transparent; stroke: #c3c3c3; stroke-width: 1; } .l { stroke: 1; } .i { fill: #c2c7ce; stroke: #c2c7ce; } .i.ix { fill: #afb3b6; stroke: #000; } .fa { fill: transparent; overflow: visible; } .fa .bg.hover { fill: #f7f7f7; } .c { cy: 12; r: 4; stroke: #d2d2dc; fill: #d2d2dc; } .hr { fill: transparent; stroke: #323c46; stroke-opacity: 0.035; stroke-width: 13; } .dc { stroke: #fa5a3c; fill: #fa5a3c; } .x { stroke: white; stroke-width: 1; } .hl .th { fill: #1b9bff; } .hl .tht {  } .fhl .bg { fill: #e7f4ff; } .fhls .bg {  } .r.hl { stroke: #1b9bff; } .dim { opacity: 0.25; }</style><g class="drawing-wrapper" transform="translate(-53, 20) scale(1,1)"><g class="rs"><path d="M 366 301 m -1, 0 a 1,1 0 1,0 2,0 a 1,1 0 1,0 -2,0 M 366 301 m -0.5, 0 a 0.5,0.5 0 1,0 1,0 a 0.5,0.5 0 1,0 -1,0  M366 301 L366 301 354 301 M 366 307 m -1, 0 a 1,1 0 1,0 2,0 a 1,1 0 1,0 -2,0 M 366 307 m -0.5, 0 a 0.5,0.5 0 1,0 1,0 a 0.5,0.5 0 1,0 -1,0  M366 307 L366 307 359 301 366 295 M 366 295 m -1, 0 a 1,1 0 1,0 2,0 a 1,1 0 1,0 -2,0 M 366 295 m -0.5, 0 a 0.5,0.5 0 1,0 1,0 a 0.5,0.5 0 1,0 -1,0  M354 301 C -17.600000000000023 301, 103 417, 153 417 M 165 417 m -1, 0 a 1,1 0 1,0 2,0 a 1,1 0 1,0 -2,0 M 165 417 m -0.5, 0 a 0.5,0.5 0 1,0 1,0 a 0.5,0.5 0 1,0 -1,0  M165 417 L165 417 153 417 M159 423 L159 423 159 411" id="h133153459" class="r"></path><path d="M 696.16 95 m -1, 0 a 1,1 0 1,0 2,0 a 1,1 0 1,0 -2,0 M 696.16 95 m -0.5, 0 a 0.5,0.5 0 1,0 1,0 a 0.5,0.5 0 1,0 -1,0  M696.16 95 L696.16 95 708.16 95 M702.16 101 L702.16 101 702.16 89 M708.16 95 C 758.16 95, 855.162 276, 546.49 276 M 534.49 276 m -1, 0 a 1,1 0 1,0 2,0 a 1,1 0 1,0 -2,0 M 534.49 276 m -0.5, 0 a 0.5,0.5 0 1,0 1,0 a 0.5,0.5 0 1,0 -1,0  M534.49 276 L534.49 276 546.49 276 M540.49 282 L540.49 282 540.49 270" id="h1277105345" class="r"></path><path d="M 529 120 m -1, 0 a 1,1 0 1,0 2,0 a 1,1 0 1,0 -2,0 M 529 120 m -0.5, 0 a 0.5,0.5 0 1,0 1,0 a 0.5,0.5 0 1,0 -1,0  M529 120 L529 120 517 120 M 529 126 m -1, 0 a 1,1 0 1,0 2,0 a 1,1 0 1,0 -2,0 M 529 126 m -0.5, 0 a 0.5,0.5 0 1,0 1,0 a 0.5,0.5 0 1,0 -1,0  M529 126 L529 126 522 120 529 114 M 529 114 m -1, 0 a 1,1 0 1,0 2,0 a 1,1 0 1,0 -2,0 M 529 114 m -0.5, 0 a 0.5,0.5 0 1,0 1,0 a 0.5,0.5 0 1,0 -1,0  M517 120 Q 451.29 120, 385.58 93.5 T 254.16 67 M 242.16 67 m -1, 0 a 1,1 0 1,0 2,0 a 1,1 0 1,0 -2,0 M 242.16 67 m -0.5, 0 a 0.5,0.5 0 1,0 1,0 a 0.5,0.5 0 1,0 -1,0  M242.16 67 L242.16 67 254.16 67 M248.16 73 L248.16 73 248.16 61" id="h1882043173" class="r"></path><path d="M 174 187 m -1, 0 a 1,1 0 1,0 2,0 a 1,1 0 1,0 -2,0 M 174 187 m -0.5, 0 a 0.5,0.5 0 1,0 1,0 a 0.5,0.5 0 1,0 -1,0  M174 187 L174 187 162 187 M 174 193 m -1, 0 a 1,1 0 1,0 2,0 a 1,1 0 1,0 -2,0 M 174 193 m -0.5, 0 a 0.5,0.5 0 1,0 1,0 a 0.5,0.5 0 1,0 -1,0  M174 193 L174 193 167 187 174 181 M 174 181 m -1, 0 a 1,1 0 1,0 2,0 a 1,1 0 1,0 -2,0 M 174 181 m -0.5, 0 a 0.5,0.5 0 1,0 1,0 a 0.5,0.5 0 1,0 -1,0  M162 187 C -46.400000000000006 187, 13 67, 63 67 M 75 67 m -1, 0 a 1,1 0 1,0 2,0 a 1,1 0 1,0 -2,0 M 75 67 m -0.5, 0 a 0.5,0.5 0 1,0 1,0 a 0.5,0.5 0 1,0 -1,0  M75 67 L75 67 63 67 M69 73 L69 73 69 61" id="h1248694035" class="r"></path><path d="M 174 212 m -1, 0 a 1,1 0 1,0 2,0 a 1,1 0 1,0 -2,0 M 174 212 m -0.5, 0 a 0.5,0.5 0 1,0 1,0 a 0.5,0.5 0 1,0 -1,0  M174 212 L174 212 162 212 M168 218 L168 218 168 206 M162 212 C 112 212, -3.2000000000000455 276, 354 276 M 366 276 m -1, 0 a 1,1 0 1,0 2,0 a 1,1 0 1,0 -2,0 M 366 276 m -0.5, 0 a 0.5,0.5 0 1,0 1,0 a 0.5,0.5 0 1,0 -1,0  M366 276 L366 276 354 276 M360 282 L360 282 360 270" id="h1130742295" class="r"></path><path d="M 658 328 m -1, 0 a 1,1 0 1,0 2,0 a 1,1 0 1,0 -2,0 M 658 328 m -0.5, 0 a 0.5,0.5 0 1,0 1,0 a 0.5,0.5 0 1,0 -1,0  M658 328 L658 328 646 328 M652 334 L652 334 652 322 M646 328 Q 621.13 328, 596.25 302 T 546.49 276 M 534.49 276 m -1, 0 a 1,1 0 1,0 2,0 a 1,1 0 1,0 -2,0 M 534.49 276 m -0.5, 0 a 0.5,0.5 0 1,0 1,0 a 0.5,0.5 0 1,0 -1,0  M534.49 276 L534.49 276 546.49 276 M540.49 282 L540.49 282 540.49 270" id="h221257298" class="r"></path></g><g class="hrs"></g><g class="ts"><svg width="158.47" height="100" x="165" y="360" id="h3517680912" class="t"><rect height="40" width="158.47" class="th"></rect><text x="13" y="25" class="tht">Titles</text><rect height="60" width="158.47" class="t-bg"></rect><text x="13" y="61" class="tf pk">title_id<tspan x="145.47" class="ty">VARCHAR</tspan></text><path d="M7,14A2,2 0 0,1 5,12A2,2 0 0,1 7,10A2,2 0 0,1 9,12A2,2 0 0,1 7,14M12.65,10C11.83,7.67 9.61,6 7, 6A6, 6 0 0, 0 1, 12A6, 6 0 0, 0 7, 18C9.61, 18 11.83, 16.33 12.65, 14H17V18H21V14H23V10H12.65Z" class="i pk" transform="translate(67.68484375, 48) scale(0.65)"></path><text x="13" y="86" class="tf">title<tspan x="145.47" class="ty">VARCHAR</tspan></text></svg><svg width="168.49" height="225" x="366" y="219" id="h3299212598" class="t"><rect height="40" width="168.49" class="th"></rect><text x="13" y="25" class="tht">Employees</text><rect height="185" width="168.49" class="t-bg"></rect><text x="13" y="61" class="tf pk">emp_no<tspan x="155.49" class="ty">INT</tspan></text><path d="M7,14A2,2 0 0,1 5,12A2,2 0 0,1 7,10A2,2 0 0,1 9,12A2,2 0 0,1 7,14M12.65,10C11.83,7.67 9.61,6 7, 6A6, 6 0 0, 0 1, 12A6, 6 0 0, 0 7, 18C9.61, 18 11.83, 16.33 12.65, 14H17V18H21V14H23V10H12.65Z" class="i pk" transform="translate(116.15992187500001, 48) scale(0.65)"></path><text x="13" y="86" class="tf fk">emp_title_id<tspan x="155.49" class="ty">VARCHAR</tspan></text><text x="13" y="111" class="tf">birth_date<tspan x="155.49" class="ty">DATE</tspan></text><text x="13" y="136" class="tf">first_name<tspan x="155.49" class="ty">VARCHAR</tspan></text><text x="13" y="161" class="tf">last_name<tspan x="155.49" class="ty">VARCHAR</tspan></text><text x="13" y="186" class="tf">sex<tspan x="155.49" class="ty">VARCHAR</tspan></text><text x="13" y="211" class="tf">hire_date<tspan x="155.49" class="ty">DATE</tspan></text></svg><svg width="167.16" height="100" x="529" y="38" id="h3353995054" class="t"><rect height="40" width="167.16" class="th"></rect><text x="13" y="25" class="tht">Dept_Emp</text><rect height="60" width="167.16" class="t-bg"></rect><text x="13" y="61" class="tf pk">emp_no<tspan x="154.16" class="ty">INT</tspan></text><path d="M7,14A2,2 0 0,1 5,12A2,2 0 0,1 7,10A2,2 0 0,1 9,12A2,2 0 0,1 7,14M12.65,10C11.83,7.67 9.61,6 7, 6A6, 6 0 0, 0 1, 12A6, 6 0 0, 0 7, 18C9.61, 18 11.83, 16.33 12.65, 14H17V18H21V14H23V10H12.65Z" class="i pk" transform="translate(114.829921875, 48) scale(0.65)"></path><text x="13" y="86" class="tf pk">dept_no<tspan x="154.16" class="ty">VARCHAR</tspan></text><path d="M7,14A2,2 0 0,1 5,12A2,2 0 0,1 7,10A2,2 0 0,1 9,12A2,2 0 0,1 7,14M12.65,10C11.83,7.67 9.61,6 7, 6A6, 6 0 0, 0 1, 12A6, 6 0 0, 0 7, 18C9.61, 18 11.83, 16.33 12.65, 14H17V18H21V14H23V10H12.65Z" class="i pk" transform="translate(76.37484375, 73) scale(0.65)"></path></svg><svg width="128.7" height="100" x="658" y="271" id="h3858243705" class="t"><rect height="40" width="128.7" class="th"></rect><text x="13" y="25" class="tht">Salaries</text><rect height="60" width="128.7" class="t-bg"></rect><text x="13" y="61" class="tf pk">emp_no<tspan x="115.69999999999999" class="ty">INT</tspan></text><path d="M7,14A2,2 0 0,1 5,12A2,2 0 0,1 7,10A2,2 0 0,1 9,12A2,2 0 0,1 7,14M12.65,10C11.83,7.67 9.61,6 7, 6A6, 6 0 0, 0 1, 12A6, 6 0 0, 0 7, 18C9.61, 18 11.83, 16.33 12.65, 14H17V18H21V14H23V10H12.65Z" class="i pk" transform="translate(76.36992187499999, 48) scale(0.65)"></path><text x="13" y="86" class="tf">salary<tspan x="115.69999999999999" class="ty">INT</tspan></text></svg><svg width="167.16" height="100" x="75" y="10" id="h3708248841" class="t"><rect height="40" width="167.16" class="th"></rect><text x="13" y="25" class="tht">Departments</text><rect height="60" width="167.16" class="t-bg"></rect><text x="13" y="61" class="tf pk">dept_no<tspan x="154.16" class="ty">VARCHAR</tspan></text><path d="M7,14A2,2 0 0,1 5,12A2,2 0 0,1 7,10A2,2 0 0,1 9,12A2,2 0 0,1 7,14M12.65,10C11.83,7.67 9.61,6 7, 6A6, 6 0 0, 0 1, 12A6, 6 0 0, 0 7, 18C9.61, 18 11.83, 16.33 12.65, 14H17V18H21V14H23V10H12.65Z" class="i pk" transform="translate(76.37484375, 48) scale(0.65)"></path><text x="13" y="86" class="tf">dept_name<tspan x="154.16" class="ty">VARCHAR</tspan></text></svg><svg width="167.16" height="100" x="174" y="130" id="h754932316" class="t"><rect height="40" width="167.16" class="th"></rect><text x="13" y="25" class="tht">Dept_Manager</text><rect height="60" width="167.16" class="t-bg"></rect><text x="13" y="61" class="tf pk">dept_no<tspan x="154.16" class="ty">VARCHAR</tspan></text><path d="M7,14A2,2 0 0,1 5,12A2,2 0 0,1 7,10A2,2 0 0,1 9,12A2,2 0 0,1 7,14M12.65,10C11.83,7.67 9.61,6 7, 6A6, 6 0 0, 0 1, 12A6, 6 0 0, 0 7, 18C9.61, 18 11.83, 16.33 12.65, 14H17V18H21V14H23V10H12.65Z" class="i pk" transform="translate(76.37484375, 48) scale(0.65)"></path><text x="13" y="86" class="tf pk">emp_no<tspan x="154.16" class="ty">INT</tspan></text><path d="M7,14A2,2 0 0,1 5,12A2,2 0 0,1 7,10A2,2 0 0,1 9,12A2,2 0 0,1 7,14M12.65,10C11.83,7.67 9.61,6 7, 6A6, 6 0 0, 0 1, 12A6, 6 0 0, 0 7, 18C9.61, 18 11.83, 16.33 12.65, 14H17V18H21V14H23V10H12.65Z" class="i pk" transform="translate(114.829921875, 73) scale(0.65)"></path></svg></g></g><text class="qdbd-link" x="10" y="20">www.quickdatabasediagrams.com</text></svg>